<svg width="135" height="55" viewBox="0 0 135 55" fill="none" xmlns="http://www.w3.org/2000/svg">
<g clip-path="url(#clip0_980_2250)">
<rect y="20.4922" width="131" height="34" rx="16" transform="rotate(-9 0 20.4922)" fill="white"/>
<path d="M15.2905 40.3244L29.1181 38.1343L26.928 24.3066L13.1004 26.4967L15.2905 40.3244ZM31.699 27.8972L33.0643 36.5171L31.7595 36.7237L30.6009 29.4086L30.5504 29.4166L28.7014 31.0901L28.504 29.8443L30.4321 28.0979L31.699 27.8972ZM34.9484 34.4928L34.7817 33.4406L37.5746 26.9666L38.4038 26.8353L38.6491 28.3842L38.123 28.4675L36.1267 33.1068L36.1374 33.1741L41.2428 32.3655L41.4174 33.4682L34.9484 34.4928ZM39.3019 35.5291L38.9845 33.5257L38.917 33.0445L37.945 26.908L39.1782 26.7126L40.5435 35.3325L39.3019 35.5291ZM46.2075 29.4565L46.3808 30.5508L42.5591 31.1561L42.3858 30.0618L46.2075 29.4565ZM51.5455 33.5899L48.755 34.0319L47.3898 25.4121L50.2687 24.9561C51.1133 24.8223 51.8659 24.88 52.5267 25.1291C53.187 25.3755 53.7294 25.7944 54.1538 26.3858C54.5806 26.974 54.8649 27.7157 55.0067 28.6107C55.1489 29.5086 55.107 30.3063 54.8809 31.0036C54.6576 31.7005 54.2649 32.2719 53.7027 32.7176C53.14 33.1605 52.421 33.4512 51.5455 33.5899ZM49.8756 32.6895L51.294 32.4648C51.9506 32.3608 52.4768 32.1509 52.8726 31.8351C53.268 31.5165 53.5364 31.1044 53.6777 30.5988C53.8187 30.0904 53.8352 29.4952 53.7272 28.8134C53.6201 28.1372 53.4212 27.5805 53.1304 27.1433C52.8425 26.7057 52.4674 26.3984 52.005 26.2213C51.5427 26.0443 50.9972 26.0056 50.3687 26.1052L48.8703 26.3425L49.8756 32.6895ZM59.1116 32.5383C58.7019 32.6031 58.3196 32.586 57.9645 32.487C57.6089 32.3851 57.3112 32.2036 57.0714 31.9424C56.8344 31.6808 56.6823 31.3382 56.6152 30.9145C56.5574 30.5497 56.58 30.2383 56.683 29.9804C56.786 29.7225 56.9458 29.5059 57.1625 29.3307C57.3793 29.1554 57.6294 29.0093 57.9129 28.8925C58.1964 28.7757 58.4882 28.6749 58.7883 28.5899C59.1684 28.4837 59.4769 28.3975 59.7137 28.3312C59.9502 28.2621 60.1177 28.1852 60.2165 28.1005C60.3153 28.0159 60.3527 27.8978 60.3287 27.7463L60.324 27.7168C60.2658 27.3492 60.1169 27.0809 59.8772 26.9117C59.6404 26.7421 59.3185 26.6896 58.9117 26.754C58.488 26.8211 58.169 26.968 57.9546 27.1946C57.7426 27.4181 57.6084 27.6507 57.5518 27.8927L56.3264 27.8106C56.4045 27.3956 56.5591 27.0461 56.7902 26.7621C57.0237 26.4749 57.3086 26.2485 57.6448 26.0831C57.9806 25.9149 58.3435 25.7999 58.7335 25.7381C58.9917 25.6972 59.2701 25.6848 59.5689 25.7007C59.8701 25.7134 60.1596 25.7797 60.4374 25.8997C60.7181 26.0192 60.9634 26.2148 61.1732 26.4864C61.3826 26.7553 61.5247 27.1254 61.5993 27.5968L62.2793 31.8898L61.0503 32.0845L60.9103 31.2006L60.8598 31.2086C60.8042 31.3843 60.7075 31.5635 60.5696 31.7464C60.4318 31.9294 60.2434 32.0929 60.0045 32.2372C59.7656 32.3815 59.468 32.4818 59.1116 32.5383ZM59.2252 31.4848C59.5731 31.4297 59.8597 31.3138 60.0848 31.1372C60.3128 30.9602 60.4737 30.7506 60.5677 30.5085C60.664 30.2631 60.692 30.0128 60.6515 29.7574L60.5195 28.9241C60.4817 28.9761 60.4014 29.0319 60.2786 29.0917C60.1581 29.1482 60.0187 29.2033 59.8604 29.2571C59.7016 29.3082 59.5469 29.3571 59.3961 29.404C59.2449 29.4481 59.1185 29.4854 59.0169 29.5159C58.7777 29.5854 58.5628 29.6726 58.3723 29.7776C58.1847 29.8821 58.0414 30.0126 57.9425 30.1692C57.846 30.3226 57.8155 30.5115 57.8511 30.736C57.9004 31.0474 58.0528 31.2649 58.3082 31.3884C58.5632 31.5091 58.8688 31.5412 59.2252 31.4848ZM64.9035 33.9594C64.7155 33.9891 64.5418 34.0008 64.3826 33.9944C64.2239 33.9908 64.1039 33.9781 64.0228 33.9565L64.1626 32.8773C64.4024 32.9026 64.6115 32.8968 64.7897 32.8599C64.968 32.8231 65.1158 32.7306 65.2333 32.5826C65.3536 32.4341 65.4444 32.2083 65.5057 31.9052L65.5935 31.4512L62.1908 25.2768L63.5376 25.0635L65.9695 29.8212L66.0369 29.8105L66.8795 24.5342L68.2306 24.3202L66.7269 32.0699C66.6568 32.4261 66.5448 32.7358 66.3908 32.999C66.2374 33.2649 66.0381 33.4776 65.793 33.6373C65.5479 33.7969 65.2514 33.9043 64.9035 33.9594ZM75.6266 23.1488L75.7866 24.1589L72.1333 24.7376L71.9733 23.7274L75.6266 23.1488ZM73.999 30.0336L72.8564 22.8196C72.7924 22.4155 72.8277 22.0662 72.9622 21.7717C73.0963 21.4743 73.2988 21.2366 73.5698 21.0585C73.8403 20.8776 74.1467 20.76 74.489 20.7058C74.7415 20.6658 74.9609 20.6526 75.1472 20.6662C75.333 20.6771 75.472 20.6925 75.5643 20.7123L75.431 21.7776C75.3694 21.7701 75.2906 21.7624 75.1944 21.7546C75.0978 21.7441 74.9836 21.7492 74.8517 21.7701C74.5459 21.8185 74.339 21.929 74.2311 22.1014C74.126 22.2733 74.0962 22.5024 74.1415 22.7886L75.2574 29.8343L73.999 30.0336ZM77.949 29.408L76.9251 22.9431L78.1415 22.7505L78.3041 23.7775L78.3715 23.7668C78.4342 23.4002 78.5985 23.0937 78.8644 22.8474C79.1326 22.5978 79.4561 22.443 79.8349 22.383C79.9135 22.3706 80.0065 22.3587 80.1141 22.3475C80.2244 22.3357 80.3111 22.3292 80.3741 22.3278L80.5648 23.5316C80.5121 23.5255 80.4198 23.5243 80.2881 23.5279C80.1559 23.5287 80.0253 23.5394 79.8962 23.5598C79.5988 23.6069 79.3436 23.712 79.1307 23.8752C78.9202 24.0351 78.7651 24.2366 78.6656 24.4796C78.5655 24.7198 78.5377 24.9801 78.5822 25.2607L79.2075 29.2087L77.949 29.408ZM85.0733 28.4134C84.4363 28.5143 83.8662 28.4651 83.3629 28.2658C82.862 28.0632 82.4473 27.7334 82.119 27.2763C81.7929 26.816 81.5768 26.2505 81.4706 25.5799C81.3657 24.9177 81.3967 24.3145 81.5637 23.7703C81.7334 23.2257 82.0189 22.7763 82.4201 22.4223C82.8242 22.0678 83.3265 21.843 83.9269 21.7479C84.2917 21.6901 84.6548 21.6944 85.0162 21.7609C85.3777 21.8273 85.7149 21.968 86.028 22.1831C86.3411 22.3981 86.6088 22.6994 86.8313 23.087C87.0533 23.4718 87.2107 23.9574 87.3036 24.5438L87.3743 24.99L82.2352 25.8039L82.0859 24.8611L85.9918 24.2425C85.9393 23.9114 85.8255 23.6288 85.6504 23.3948C85.4748 23.158 85.2532 22.9846 84.9855 22.8745C84.7207 22.764 84.4255 22.7346 84.1 22.7861C83.7465 22.8421 83.4516 22.978 83.2154 23.1937C82.9815 23.4062 82.8151 23.6627 82.716 23.9632C82.6192 24.2604 82.5964 24.5703 82.6475 24.893L82.7642 25.6295C82.8326 26.0617 82.9666 26.4172 83.1661 26.6963C83.3684 26.9749 83.6197 27.1724 83.9201 27.2887C84.2199 27.4023 84.5537 27.43 84.9212 27.3718C85.1597 27.334 85.3719 27.2659 85.5576 27.1675C85.7429 27.0662 85.8962 26.9355 86.0176 26.7753C86.1389 26.6152 86.2214 26.4281 86.2652 26.2141L87.4903 26.2401C87.4505 26.6059 87.328 26.9403 87.1228 27.2431C86.92 27.5427 86.645 27.7948 86.2977 27.9994C85.9528 28.2007 85.5447 28.3387 85.0733 28.4134ZM92.0295 27.3116C91.3926 27.4125 90.8225 27.3633 90.3192 27.164C89.8183 26.9615 89.4036 26.6317 89.0752 26.1746C88.7492 25.7142 88.5331 25.1487 88.4268 24.4781C88.322 23.8159 88.353 23.2127 88.5199 22.6685C88.6896 22.1239 88.9751 21.6746 89.3764 21.3205C89.7805 20.966 90.2827 20.7412 90.8832 20.6461C91.248 20.5883 91.6111 20.5927 91.9725 20.6591C92.3339 20.7255 92.6712 20.8663 92.9842 21.0813C93.2973 21.2963 93.5651 21.5977 93.7875 21.9852C94.0095 22.37 94.167 22.8556 94.2599 23.4421L94.3305 23.8882L89.1915 24.7022L89.0422 23.7594L92.948 23.1407C92.8956 22.8096 92.7818 22.5271 92.6067 22.2931C92.4311 22.0563 92.2095 21.8828 91.9418 21.7728C91.6769 21.6623 91.3818 21.6328 91.0563 21.6844C90.7027 21.7404 90.4078 21.8762 90.1716 22.092C89.9378 22.3045 89.7713 22.5609 89.6722 22.8614C89.5755 23.1586 89.5527 23.4685 89.6038 23.7912L89.7204 24.5278C89.7889 24.9599 89.9228 25.3155 90.1224 25.5945C90.3247 25.8731 90.576 26.0706 90.8763 26.187C91.1762 26.3006 91.5099 26.3282 91.8775 26.27C92.116 26.2323 92.3281 26.1641 92.5139 26.0657C92.6992 25.9644 92.8525 25.8337 92.9738 25.6736C93.0951 25.5134 93.1777 25.3263 93.2214 25.1123L94.4466 25.1383C94.4067 25.5041 94.2842 25.8385 94.0791 26.1414C93.8763 26.441 93.6013 26.6931 93.254 26.8977C92.9091 27.099 92.5009 27.237 92.0295 27.3116ZM101.309 19.0811L101.469 20.0912L97.9381 20.6505L97.7781 19.6403L101.309 19.0811ZM98.4798 17.9415L99.7382 17.7422L100.707 23.8577C100.745 24.1018 100.811 24.2798 100.904 24.3917C100.996 24.5008 101.103 24.5687 101.225 24.5954C101.349 24.6188 101.48 24.6196 101.618 24.5979C101.719 24.5819 101.806 24.5608 101.88 24.5348C101.953 24.5088 102.01 24.4882 102.051 24.4731L102.443 25.4767C102.375 25.5164 102.275 25.5609 102.145 25.6103C102.015 25.6625 101.85 25.706 101.648 25.7408C101.318 25.7988 101 25.7888 100.694 25.7106C100.388 25.6325 100.127 25.4784 99.9089 25.2482C99.6912 25.0181 99.5515 24.708 99.4897 24.318L98.4798 17.9415ZM103.725 25.3254L102.701 18.8606L103.918 18.6679L104.08 19.6949L104.148 19.6842C104.211 19.3176 104.375 19.0111 104.641 18.7648C104.909 18.5152 105.232 18.3605 105.611 18.3005C105.69 18.288 105.783 18.2762 105.89 18.2649C106.001 18.2532 106.087 18.2466 106.15 18.2453L106.341 19.449C106.288 19.443 106.196 19.4418 106.064 19.4454C105.932 19.4462 105.802 19.4568 105.673 19.4772C105.375 19.5243 105.12 19.6295 104.907 19.7926C104.697 19.9525 104.541 20.154 104.442 20.397C104.342 20.6372 104.314 20.8976 104.359 21.1782L104.984 25.1261L103.725 25.3254ZM108.274 24.605L107.25 18.1401L108.509 17.9408L109.533 24.4057L108.274 24.605ZM107.728 17.0419C107.509 17.0766 107.309 17.0334 107.129 16.9124C106.951 16.7881 106.846 16.6236 106.814 16.4187C106.781 16.2111 106.83 16.0221 106.961 15.8518C107.095 15.6782 107.271 15.574 107.49 15.5394C107.709 15.5047 107.907 15.5495 108.085 15.6738C108.265 15.7948 108.372 15.9591 108.405 16.1668C108.437 16.3716 108.386 16.5608 108.253 16.7344C108.122 16.9048 107.947 17.0073 107.728 17.0419ZM113.13 23.9826C112.72 24.0475 112.338 24.0304 111.983 23.9313C111.627 23.8295 111.329 23.6479 111.089 23.3868C110.852 23.1252 110.7 22.7825 110.633 22.3588C110.576 21.9941 110.598 21.6827 110.701 21.4248C110.804 21.1669 110.964 20.9503 111.181 20.775C111.397 20.5998 111.647 20.4537 111.931 20.3369C112.214 20.2201 112.506 20.1192 112.806 20.0343C113.186 19.9281 113.495 19.8418 113.732 19.7756C113.968 19.7065 114.136 19.6296 114.235 19.5449C114.333 19.4602 114.371 19.3422 114.347 19.1906L114.342 19.1612C114.284 18.7936 114.135 18.5252 113.895 18.3561C113.658 18.1865 113.337 18.1339 112.93 18.1984C112.506 18.2655 112.187 18.4124 111.973 18.639C111.761 18.8624 111.626 19.0951 111.57 19.3371L110.344 19.255C110.423 18.84 110.577 18.4905 110.808 18.2065C111.042 17.9193 111.327 17.6929 111.663 17.5275C111.999 17.3593 112.362 17.2443 112.752 17.1825C113.01 17.1416 113.288 17.1291 113.587 17.1451C113.888 17.1578 114.178 17.2241 114.456 17.3441C114.736 17.4636 114.981 17.6591 115.191 17.9308C115.401 18.1996 115.543 18.5698 115.617 19.0412L116.297 23.3342L115.068 23.5289L114.928 22.645L114.878 22.653C114.822 22.8286 114.726 23.0079 114.588 23.1908C114.45 23.3737 114.261 23.5373 114.023 23.6816C113.784 23.8258 113.486 23.9262 113.13 23.9826ZM113.243 22.9292C113.591 22.8741 113.878 22.7582 114.103 22.5816C114.331 22.4046 114.492 22.195 114.586 21.9529C114.682 21.7075 114.71 21.4572 114.67 21.2018L114.538 20.3685C114.5 20.4205 114.419 20.4763 114.297 20.5361C114.176 20.5925 114.037 20.6477 113.878 20.7015C113.72 20.7526 113.565 20.8015 113.414 20.8484C113.263 20.8925 113.137 20.9298 113.035 20.9602C112.796 21.0298 112.581 21.117 112.39 21.222C112.203 21.3265 112.059 21.457 111.961 21.6136C111.864 21.767 111.834 21.9559 111.869 22.1804C111.918 22.4918 112.071 22.7093 112.326 22.8328C112.581 22.9535 112.887 22.9856 113.243 22.9292ZM117.867 14.2496L119.232 22.8694L117.974 23.0687L116.608 14.4489L117.867 14.2496Z" fill="#1A2E6C"/>
</g>
<rect x="0.572061" y="20.9078" width="130" height="33" rx="15.5" transform="rotate(-9 0.572061 20.9078)" stroke="#1A2E6C"/>
<defs>
<clipPath id="clip0_980_2250">
<rect y="20.4922" width="131" height="34" rx="16" transform="rotate(-9 0 20.4922)" fill="white"/>
</clipPath>
</defs>
</svg>
